<?xml version="1.0" encoding="UTF-8" standalone="no"?>
<svg
   xmlns:dc="http://purl.org/dc/elements/1.1/"
   xmlns:cc="http://creativecommons.org/ns#"
   xmlns:rdf="http://www.w3.org/1999/02/22-rdf-syntax-ns#"
   xmlns:svg="http://www.w3.org/2000/svg"
   xmlns="http://www.w3.org/2000/svg"
   xmlns:sodipodi="http://sodipodi.sourceforge.net/DTD/sodipodi-0.dtd"
   xmlns:inkscape="http://www.inkscape.org/namespaces/inkscape"
   width="214.62274mm"
   height="214.62274mm"
   viewBox="0 0 214.62274 214.62274"
   version="1.1"
   id="svg8"
   inkscape:version="1.0.2-2 (e86c870879, 2021-01-15)"
   sodipodi:docname="Magic Circle with layers.svg">
  <defs
     id="defs2">
    <rect
       x="62.2738"
       y="63.877417"
       width="231.2595"
       height="10.72551"
       id="rect896" />
    <filter
       inkscape:collect="always"
       style="color-interpolation-filters:sRGB"
       id="filter1516-0-0"
       x="-0.012985901"
       width="1.0259718"
       y="-0.012985902"
       height="1.0259718">
      <feGaussianBlur
         inkscape:collect="always"
         stdDeviation="1.1371037"
         id="feGaussianBlur1518-4-9" />
    </filter>
    <filter
       inkscape:collect="always"
       style="color-interpolation-filters:sRGB"
       id="filter1415-3-6"
       x="-0.018501634"
       width="1.0370033"
       y="-0.018496701"
       height="1.0369934">
      <feGaussianBlur
         inkscape:collect="always"
         stdDeviation="1.5574521"
         id="feGaussianBlur1417-9-6" />
    </filter>
    <filter
       inkscape:collect="always"
       style="color-interpolation-filters:sRGB"
       id="filter1968-0-5"
       x="-0.02498536"
       width="1.0499707"
       y="-0.024985362"
       height="1.0499707">
      <feGaussianBlur
         inkscape:collect="always"
         stdDeviation="1.9078025"
         id="feGaussianBlur1970-5-2" />
    </filter>
  </defs>
  <sodipodi:namedview
     id="base"
     pagecolor="#ffffff"
     bordercolor="#666666"
     borderopacity="1.0"
     inkscape:pageopacity="0.0"
     inkscape:pageshadow="2"
     inkscape:zoom="1.4"
     inkscape:cx="574.275"
     inkscape:cy="626.59114"
     inkscape:document-units="mm"
     inkscape:current-layer="layer6"
     inkscape:document-rotation="0"
     showgrid="false"
     fit-margin-top="0"
     fit-margin-left="0"
     fit-margin-right="0"
     fit-margin-bottom="0"
     inkscape:window-width="1920"
     inkscape:window-height="986"
     inkscape:window-x="-11"
     inkscape:window-y="-11"
     inkscape:window-maximized="1" />
  <metadata
     id="metadata5">
    <rdf:RDF>
      <cc:Work
         rdf:about="">
        <dc:format>image/svg+xml</dc:format>
        <dc:type
           rdf:resource="http://purl.org/dc/dcmitype/StillImage" />
        <dc:title />
      </cc:Work>
    </rdf:RDF>
  </metadata>
  <g
     inkscape:groupmode="layer"
     id="layer3"
     inkscape:label="Outer Base Blur"
     style="display:inline"
     sodipodi:insensitive="true">
    <path
       id="path835-12-6"
       style="display:inline;opacity:0.998;mix-blend-mode:normal;fill:none;stroke:#f0ff57;stroke-width:2.468;stroke-miterlimit:4;stroke-dasharray:none;stroke-dashoffset:1.51937;stroke-opacity:1;filter:url(#filter1516-0-0)"
       d="M 107.31137,2.2339979 A 105.07738,105.07738 0 0 0 2.2339937,107.31137 105.07738,105.07738 0 0 0 107.31137,212.38875 105.07738,105.07738 0 0 0 212.38875,107.31137 105.07738,105.07738 0 0 0 107.31137,2.2339979 Z" />
  </g>
  <g
     inkscape:groupmode="layer"
     id="layer2"
     inkscape:label="Outer Base Line"
     style="display:inline"
     sodipodi:insensitive="true">
    <path
       id="path835-1-3-8"
       style="display:inline;opacity:0.998;mix-blend-mode:normal;fill:none;stroke:#ffffff;stroke-width:1.568;stroke-miterlimit:4;stroke-dasharray:none;stroke-dashoffset:1.51937;stroke-opacity:1"
       d="M 107.31137,2.2339928 A 105.07738,105.07738 0 0 0 2.2339913,107.31137 105.07738,105.07738 0 0 0 107.31137,212.38875 105.07738,105.07738 0 0 0 212.38875,107.31137 105.07738,105.07738 0 0 0 107.31137,2.2339928 Z" />
  </g>
  <g
     inkscape:groupmode="layer"
     id="layer5"
     inkscape:label="Letter Glow"
     style="display:inline"
     sodipodi:insensitive="true">
    <g
       aria-label="HELLOMYNAMEISSAIFAFRONTENDWEBDEVLOPER"
       transform="translate(0.02284322,-0.01307577)"
       id="text894-3-1"
       style="font-size:9.87778px;line-height:0;font-family:floki;-inkscape-font-specification:floki;letter-spacing:10.7077px;white-space:pre;display:inline;stroke:#dbff00;stroke-opacity:1;filter:url(#filter1415-3-6)">
      <path
         d="m 101.97568,208.21156 0.24011,-7.89858 1.00706,0.0306 -0.0549,1.80679 2.9703,3.71712 0.16507,-5.43027 1.00707,0.0306 -0.24011,7.89857 -1.00707,-0.0306 0.0366,-1.20453 -2.9712,-3.68749 -0.14586,4.79838 z"
         style="font-size:9.87778px;stroke:#dbff00;stroke-opacity:1"
         id="path1071-5-6" />
      <path
         d="m 84.315765,205.72175 1.617444,-7.73492 0.986203,0.20622 -1.324283,6.33297 1.841207,-1.42135 0.03912,-0.0423 -0.002,0.01 0.01169,-0.008 0.0036,0.031 1.123025,2.06138 1.324283,-6.33296 0.986203,0.20622 -1.617445,7.73492 -0.986202,-0.20622 -1.13832,-2.08477 -1.8783,1.45396 z"
         style="font-size:9.87778px;stroke:#dbff00;stroke-opacity:1"
         id="path1073-0-1" />
      <path
         d="m 72.863353,198.32224 1.519001,-3.8818 0.772681,0.30236 -2.879622,7.35887 -0.772681,-0.30236 -1.197793,-3.4175 0.469539,-1.22701 1.188993,3.46709 0.439143,-1.12223 z"
         style="font-size:9.87778px;stroke:#dbff00;stroke-opacity:1"
         id="path1075-5-2" />
      <path
         d="m 59.179448,191.87599 2.104592,-3.59812 0.716213,0.41893 -3.989749,6.82107 -0.716213,-0.41892 -0.651358,-3.56226 0.65477,-1.139 0.634948,3.60988 0.608437,-1.04021 z"
         style="font-size:9.87778px;stroke:#dbff00;stroke-opacity:1"
         id="path1077-6-2" />
      <path
         d="m 45.328104,182.29288 -1.727471,0.13082 0.17392,1.8147 1.823565,-0.1537 -0.180154,-1.72995 -0.0063,0.008 -0.0077,-0.0835 -0.02023,0.009 z m -0.0014,-3.75243 0.81343,-0.99366 0.05964,3.77513 3.722673,-0.62997 -0.834936,0.98862 -2.812251,0.46207 0.219107,2.6873 -0.01391,0.001 -3.501627,0.36415 -0.274367,-3.5169 2.682183,-0.27475 -0.06625,-2.85567 z"
         style="font-size:9.87778px;stroke:#dbff00;stroke-opacity:1"
         id="path1079-9-8" />
      <path
         d="m 32.173285,169.30325 -1.665319,1.41144 1.443154,0.007 z m 1.985083,2.35743 -1.429232,-0.006 -0.228551,1.41085 z m -5.394464,-0.78854 6.028301,-5.10928 0.651433,0.76861 -2.155117,1.82657 -0.40642,2.37734 2.383967,-0.0135 2.170189,-1.83934 0.651433,0.7686 -6.028302,5.10928 -0.651433,-0.76861 0.382665,-2.34426 -2.375283,-0.007 z"
         style="font-size:9.87778px;stroke:#dbff00;stroke-opacity:1"
         id="path1081-1-0" />
      <path
         d="m 21.672802,152.90084 -1.242682,3.45501 5.760102,-3.29887 0.500721,0.8743 -0.0086,0.005 0.152179,0.26572 -0.69247,3.56106 -0.628355,-1.09716 0.43149,-2.30744 -0.171432,0.0982 -1.131449,0.64799 -4.808656,2.75396 -0.500721,-0.8743 1.204733,-3.42189 z"
         style="font-size:9.87778px;stroke:#dbff00;stroke-opacity:1"
         id="path1083-1-0" />
      <path
         d="m 16.956039,139.22296 2.531391,-0.9004 0.33434,0.93997 -1.703105,0.60578 -1.219163,0.43365 -0.7073,0.25158 -1.140792,2.00983 -1.191242,0.42371 1.131484,-2.00651 -2.61515,0.93019 -0.334339,-0.93997 3.694714,-1.31418 1.131484,-2.00652 1.234466,-0.44958 z"
         style="font-size:9.87778px;stroke:#dbff00;stroke-opacity:1"
         id="path1085-3-9" />
      <path
         d="m 10.580854,126.20787 2.276561,-2.81624 1.193371,-0.22827 -2.235917,2.81885 4.100427,-0.74983 0.149256,0.8162 -7.7733217,1.42148 -0.1492559,-0.81619 2.2765606,-2.81625 1.290538,-0.24604 -2.3233672,2.83485 z"
         style="font-size:9.87778px;stroke:#dbff00;stroke-opacity:1"
         id="path1087-1-6" />
      <path
         d="m 9.9045351,107.66184 -2.1827067,0.0351 1.1113914,0.92063 z m 0.039714,3.08163 -1.101356,-0.91091 -1.0714742,0.94588 z m -3.6707261,-4.03086 7.901201,-0.12715 0.01621,1.0074 -2.82468,0.0455 -1.8219514,1.58033 1.8517894,1.50146 2.844432,-0.0458 0.01621,1.0074 -7.9012014,0.12716 -0.016212,-1.0074 1.7826043,-1.56982 -1.8321951,-1.51165 z"
         style="font-size:9.87778px;stroke:#dbff00;stroke-opacity:1"
         id="path1089-0-6" />
      <path
         d="m 7.9212849,89.033431 7.8034611,1.245448 -0.158795,0.994941 -6.3890834,-1.019711 1.5078324,1.771081 0.0441,0.03705 -0.0098,-0.0016 0.0082,0.01131 -0.03082,0.0051 -2.0052823,1.220383 6.3890833,1.019711 -0.158794,0.994941 -7.8034612,-1.245448 0.1587946,-0.994941 2.0279041,-1.236779 -1.5421792,-1.806571 z"
         style="font-size:9.87778px;stroke:#dbff00;stroke-opacity:1"
         id="path1091-1-6" />
      <path
         d="m 15.511774,78.407221 -4.567298,-1.478365 0.310275,-0.958568 7.518185,2.433522 -0.310274,0.958569 -1.719785,-0.556668 z"
         style="font-size:9.87778px;stroke:#dbff00;stroke-opacity:1"
         id="path1093-2-8" />
      <path
         d="m 20.999299,62.986839 -0.0044,-0.01326 1.120628,0.563835 1.294835,3.316369 -0.528317,1.050037 -1.456829,-3.895467 -1.557597,1.05187 -1.085332,-0.546076 -0.07059,-0.03552 -1.290451,-3.303105 0.532757,-1.058861 1.492068,3.935313 1.54439,-1.069574 z"
         style="font-size:9.87778px;stroke:#dbff00;stroke-opacity:1"
         id="path1095-5-9" />
      <path
         d="m 29.890983,48.850004 -0.002,-0.01382 1.007329,0.747666 0.706902,3.489296 -0.700569,0.943875 -0.767181,-4.087596 -1.714915,0.769162 -0.975601,-0.724117 -0.06345,-0.0471 -0.704858,-3.475478 0.706456,-0.951806 0.795066,4.132895 1.704938,-0.788868 z"
         style="font-size:9.87778px;stroke:#dbff00;stroke-opacity:1"
         id="path1097-5-4" />
      <path
         d="m 37.989737,37.276162 3.60624,0.330149 0.852349,0.865877 -3.585847,-0.294896 2.899977,2.994309 -0.596024,0.577246 -5.497587,-5.676414 0.596024,-0.577246 3.60624,0.330149 0.921069,0.936832 -3.647695,-0.358755 z"
         style="font-size:9.87778px;stroke:#dbff00;stroke-opacity:1"
         id="path1099-0-6" />
      <path
         d="m 50.313739,29.78549 -2.814867,-3.888739 0.816155,-0.590775 4.633526,6.401218 -0.816155,0.590774 -1.059919,-1.464278 z"
         style="font-size:9.87778px;stroke:#dbff00;stroke-opacity:1"
         id="path1101-0-1" />
      <path
         d="m 63.464485,16.256796 -1.572087,6.458369 1.302288,2.551417 -0.739031,0.377214 -3.592519,-7.038391 0.739032,-0.377215 0.705031,1.381285 0.416987,-1.920712 1.002971,-0.511934 -0.836173,3.576384 0.426611,0.835809 1.214303,-4.856217 z"
         style="font-size:9.87778px;stroke:#dbff00;stroke-opacity:1"
         id="path1103-2-2" />
      <path
         d="m 76.686803,13.622892 3.075851,1.911312 0.373909,1.156042 -3.07342,-1.870657 1.250515,3.976426 -0.791516,0.248918 -2.370644,-7.538249 0.791516,-0.248917 3.07585,1.911311 0.403543,1.250271 -3.10009,-1.955463 z"
         style="font-size:9.87778px;stroke:#dbff00;stroke-opacity:1"
         id="path1105-7-4" />
      <path
         d="m 95.590609,6.9442928 -3.604665,5.5846552 0.392766,2.837502 -0.821898,0.113767 -1.083491,-7.8275919 0.821897,-0.1137665 0.212636,1.5361648 1.024273,-1.6774612 1.115432,-0.1543975 -1.963638,3.1038423 0.128664,0.929527 2.740868,-4.1886786 z"
         style="font-size:9.87778px;stroke:#dbff00;stroke-opacity:1"
         id="path1107-1-6" />
      <path
         d="m 108.95647,9.3563343 1.10495,-0.2957982 -1.05596,-1.4914085 -0.0325,1.1848884 -5.4e-4,0.019748 z m 2.27636,4.9142157 -2.33131,-2.909779 -0.0433,1.579851 -0.0346,1.263881 -0.82942,-0.02274 0.21655,-7.899256 0.82942,0.022737 2.32428,3.1665054 -0.6283,0.2100505 -0.16948,0.054643 -0.0299,0.00906 -1.50506,0.4725781 2.2273,2.738943 z"
         style="font-size:9.87778px;stroke:#dbff00;stroke-opacity:1"
         id="path1109-4-2" />
      <path
         d="m 125.74119,11.77419 1.4516,-0.945573 -1.0253,-1.5073487 -1.52486,1.0118397 0.99001,1.430054 0.002,-0.0097 0.0469,0.06948 0.0135,-0.01751 z m 1.80608,3.289187 -0.23523,1.26242 -1.86803,-3.281098 -2.96079,2.342833 0.2565,-1.268349 2.24336,-1.757734 -1.48463,-2.250661 0.0116,-0.0078 2.89485,-2.0034584 1.93209,2.9514194 -2.21941,1.530948 1.4316,2.471795 z"
         style="font-size:9.87778px;stroke:#dbff00;stroke-opacity:1"
         id="path1111-9-4" />
      <path
         d="m 141.45918,17.777482 -0.95231,2.512324 -0.93288,-0.353614 0.6407,-1.690277 0.45865,-1.209979 0.26609,-0.701973 -0.79349,-2.17053 0.44815,-1.18227 0.79698,2.161293 0.98382,-2.595452 0.93288,0.353614 -1.38994,3.666884 0.79698,2.161294 -0.45641,1.231954 z"
         style="font-size:9.87778px;stroke:#dbff00;stroke-opacity:1"
         id="path1113-6-8" />
      <path
         d="m 157.69883,21.835422 -3.0894,5.253535 -0.8685,-0.510728 0.53577,-0.911067 0.66094,-1.123933 1.87267,-3.184476 -2.73938,0.955924 0.67446,-1.12744 3.4355,-1.165358 0.65153,3.568783 -0.65744,1.137455 z"
         style="font-size:9.87778px;stroke:#dbff00;stroke-opacity:1"
         id="path1115-1-0" />
      <path
         d="m 174.49642,31.842793 -5.12301,6.016638 -0.76712,-0.653184 4.19446,-4.926122 -2.29695,0.366447 -0.0546,0.01839 0.006,-0.0075 -0.0139,0.0011 0.0117,-0.02897 8.8e-4,-2.347443 -4.19447,4.926122 -0.76712,-0.653184 5.12301,-6.016637 0.76712,0.653183 0.001,2.375293 2.34513,-0.377319 z"
         style="font-size:9.87778px;stroke:#dbff00;stroke-opacity:1"
         id="path1117-9-8" />
      <path
         d="m 180.96976,46.05397 -2.06105,1.723586 -0.64001,-0.765315 1.38666,-1.159619 0.99264,-0.830109 0.57588,-0.48159 0.37168,-2.280936 0.9699,-0.811099 -0.3641,2.274599 2.12924,-1.780615 0.64001,0.765315 -3.00822,2.515674 -0.3641,2.2746 -1.00145,0.85036 z"
         style="font-size:9.87778px;stroke:#dbff00;stroke-opacity:1"
         id="path1119-67-8" />
      <path
         d="m 194.15497,60.171409 -2.32442,-0.66196 -0.007,0.02696 -0.0184,-0.01225 -0.61662,2.344014 z m -2.99747,-1.77908 0.004,-0.01348 0.0221,-0.0012 0.62396,-2.370971 -3.00965,1.721285 z m 5.36072,1.394716 -1.22615,0.701264 -4.40729,2.520629 -1.22615,0.701265 1.23947,-4.41849 -4.43194,-1.163502 0.0343,-0.01962 -0.049,-0.0061 6.85959,-3.923158 -0.0196,0.04534 0.0343,-0.01962 -1.24437,4.409915 z"
         style="font-size:9.87778px;stroke:#dbff00;stroke-opacity:1"
         id="path1121-8-8" />
      <path
         d="m 199.82347,74.037532 1.00457,-1.526498 -1.11538,0.401162 -0.0186,0.0067 -0.5484,0.197238 z m 0.0914,1.363253 -0.42439,-0.508688 -0.1126,-0.137955 -0.0193,-0.02454 -1.05874,-1.309267 -0.84583,0.304214 -1.68237,0.605086 -1.18975,0.427906 -0.28081,-0.78077 7.4359,-2.674412 0.28082,0.78077 z"
         style="font-size:9.87778px;stroke:#dbff00;stroke-opacity:1"
         id="path1123-4-8" />
      <path
         d="m 207.12856,91.549243 -7.7773,1.399531 -0.17844,-0.991606 6.36767,-1.145866 -2.00784,-1.174264 -0.0538,-0.02042 0.01,-0.0018 -0.0115,-0.008 0.0274,-0.01497 1.49021,-1.813775 -6.36767,1.145867 -0.17844,-0.991607 7.7773,-1.399531 0.17844,0.991606 -1.50614,1.836717 2.05196,1.196432 z"
         style="font-size:9.87778px;stroke:#dbff00;stroke-opacity:1"
         id="path1125-8-3" />
      <path
         d="m 201.66621,104.97018 1.4858,1.07737 0.30193,-1.10042 z m 3.58533,-0.0462 0.34008,1.09214 1.44765,-1.11519 -1.18523,0.0153 -0.0197,2.5e-4 z m -1.498,1.80734 -0.21915,0.62518 -3.13243,-2.36999 -0.0107,-0.82967 7.90157,-0.10187 0.0107,0.82967 -3.0703,2.44996 -0.23519,-0.61932 -0.0614,-0.16715 -0.0103,-0.0295 -0.57361,-1.58306 -0.53261,1.59732 0.01,-1.2e-4 -0.009,0.0297 -0.0571,0.16868 z"
         style="font-size:9.87778px;stroke:#dbff00;stroke-opacity:1"
         id="path1127-3-3" />
      <path
         d="m 204.49865,125.15318 -1.39393,-1.97436 -0.0226,0.0164 -0.007,-0.0211 -1.95136,1.43764 z m -1.21665,-3.26646 0.0113,-0.008 0.0179,0.0129 1.974,-1.45402 -3.42332,-0.54924 z m 3.29759,4.45067 -1.39468,-0.22376 -5.01307,-0.80429 -1.39469,-0.22376 3.73837,-2.66156 -2.71971,-3.68768 0.039,0.006 -0.0343,-0.0355 7.80245,1.25181 -0.0437,0.023 0.039,0.006 -3.73681,2.65181 z"
         style="font-size:9.87778px;stroke:#dbff00;stroke-opacity:1"
         id="path1129-5-9" />
      <path
         d="m 201.69197,143.45809 -7.44112,-2.65986 0.33914,-0.94875 6.09241,2.17777 -1.15625,-2.01826 -0.0365,-0.0445 0.009,0.003 -0.006,-0.0126 0.0312,6.7e-4 2.19558,-0.83062 -6.09242,-2.17776 0.33914,-0.94875 7.44112,2.65987 -0.33914,0.94875 -2.22083,0.84257 1.18348,2.05946 z"
         style="font-size:9.87778px;stroke:#dbff00;stroke-opacity:1"
         id="path1131-1-3" />
      <path
         d="m 193.14133,155.24008 1.81114,-0.24316 -1.03447,-0.5787 -0.0172,-0.01 -0.50862,-0.28453 z m -0.96897,0.96328 0.10554,-0.65401 0.0303,-0.17549 0.006,-0.0307 0.29366,-1.65797 -0.78447,-0.43885 -1.56032,-0.87287 -1.10344,-0.61727 0.40509,-0.72413 6.89646,3.85798 -0.40509,0.72412 z"
         style="font-size:9.87778px;stroke:#dbff00;stroke-opacity:1"
         id="path1133-1-5" />
      <path
         d="m 184.52114,166.5085 -3.27848,-2.57435 0.51243,-0.65259 6.21514,4.88029 -0.51244,0.65259 -3.61774,0.16087 -1.03937,-0.80358 3.66269,-0.13813 -0.9478,-0.74425 z"
         style="font-size:9.87778px;stroke:#dbff00;stroke-opacity:1"
         id="path1135-3-8" />
      <path
         d="m 173.14861,178.92993 -0.10438,1.72927 1.82152,0.0735 0.0947,-1.82758 -1.7384,-0.0558 0.007,0.007 -0.0837,-0.004 0.006,0.0212 z m -3.71803,-0.50688 -0.87432,-0.94053 3.74841,0.45229 -0.1199,-3.7737 0.86642,0.96116 0.0769,2.84892 2.69221,0.14693 -6.1e-4,0.014 -0.11354,3.51868 -3.52165,-0.20456 0.0911,-2.69468 -2.83832,-0.32118 z"
         style="font-size:9.87778px;stroke:#dbff00;stroke-opacity:1"
         id="path1137-0-3" />
      <path
         d="m 160.27351,189.86599 2.11414,0.63374 -2.91489,-4.5142 -0.28697,2.19593 -2.1195,-0.64204 -0.68586,-1.06216 2.10101,0.59519 0.30546,-2.14909 0.84641,-0.54654 0.98057,1.51856 0.70193,1.08706 2.60411,4.03291 -0.84641,0.54654 -2.07905,-0.5976 -0.32742,2.1515 -0.68586,-1.06217 z"
         style="font-size:9.87778px;stroke:#dbff00;stroke-opacity:1"
         id="path1139-3-7" />
      <path
         d="m 144.8607,201.14233 -3.10321,-7.26741 0.9266,-0.39566 2.54075,5.95019 0.69555,-2.21957 0.008,-0.0571 0.004,0.009 0.005,-0.013 0.0207,0.0234 2.10108,1.04689 -2.54075,-5.95019 0.92659,-0.39566 3.10321,7.26741 -0.92659,0.39565 -2.12701,-1.05729 -0.70728,2.26755 z"
         style="font-size:9.87778px;stroke:#dbff00;stroke-opacity:1"
         id="path1141-1-1" />
      <path
         d="m 131.39323,202.2971 -0.98958,0.57373 1.40837,1.16441 -0.27765,-1.15235 -0.005,-0.0192 z m -3.47919,-4.1505 3.00949,2.2011 -0.3702,-1.53647 -0.29616,-1.22918 0.80665,-0.19436 1.85101,7.68238 -0.80665,0.19435 -3.06965,-2.45077 0.55177,-0.36664 0.14937,-0.0969 0.0265,-0.0165 1.32973,-0.84874 -2.86452,-2.06329 z"
         style="font-size:9.87778px;stroke:#dbff00;stroke-opacity:1"
         id="path1143-5-8" />
    </g>
  </g>
  <g
     inkscape:groupmode="layer"
     id="layer4"
     inkscape:label="Letter Lines"
     style="display:inline"
     sodipodi:insensitive="true">
    <g
       aria-label="HELLOMYNAMEISSAIFAFRONTENDWEBDEVLOPER"
       transform="translate(0.02430359,-0.01350997)"
       id="text894-1-7-5"
       style="font-size:9.87778px;line-height:0;font-family:floki;-inkscape-font-specification:floki;letter-spacing:10.7077px;white-space:pre;display:inline;fill:none;fill-opacity:1;stroke:#ffffff;stroke-width:0.6;stroke-miterlimit:4;stroke-dasharray:none;stroke-opacity:1">
      <path
         d="m 101.97568,208.21156 0.24011,-7.89858 1.00706,0.0306 -0.0549,1.80679 2.9703,3.71712 0.16507,-5.43027 1.00707,0.0306 -0.24011,7.89857 -1.00707,-0.0306 0.0366,-1.20453 -2.9712,-3.68749 -0.14586,4.79838 z"
         style="font-size:9.87778px;fill:none;fill-opacity:1;stroke:#ffffff;stroke-width:0.6;stroke-miterlimit:4;stroke-dasharray:none;stroke-opacity:1"
         id="path1071-3-1-3" />
      <path
         d="m 84.315765,205.72175 1.617444,-7.73492 0.986203,0.20622 -1.324283,6.33297 1.841207,-1.42135 0.03912,-0.0423 -0.002,0.01 0.01169,-0.008 0.0036,0.031 1.123025,2.06138 1.324283,-6.33296 0.986203,0.20622 -1.617445,7.73492 -0.986202,-0.20622 -1.13832,-2.08477 -1.8783,1.45396 z"
         style="font-size:9.87778px;fill:none;fill-opacity:1;stroke:#ffffff;stroke-width:0.6;stroke-miterlimit:4;stroke-dasharray:none;stroke-opacity:1"
         id="path1073-2-6-0" />
      <path
         d="m 72.863353,198.32224 1.519001,-3.8818 0.772681,0.30236 -2.879622,7.35887 -0.772681,-0.30236 -1.197793,-3.4175 0.469539,-1.22701 1.188993,3.46709 0.439143,-1.12223 z"
         style="font-size:9.87778px;fill:none;fill-opacity:1;stroke:#ffffff;stroke-width:0.6;stroke-miterlimit:4;stroke-dasharray:none;stroke-opacity:1"
         id="path1075-3-4-6" />
      <path
         d="m 59.179448,191.87599 2.104592,-3.59812 0.716213,0.41893 -3.989749,6.82107 -0.716213,-0.41892 -0.651358,-3.56226 0.65477,-1.139 0.634948,3.60988 0.608437,-1.04021 z"
         style="font-size:9.87778px;fill:none;fill-opacity:1;stroke:#ffffff;stroke-width:0.6;stroke-miterlimit:4;stroke-dasharray:none;stroke-opacity:1"
         id="path1077-0-6-6" />
      <path
         d="m 45.328104,182.29288 -1.727471,0.13082 0.17392,1.8147 1.823565,-0.1537 -0.180154,-1.72995 -0.0063,0.008 -0.0077,-0.0835 -0.02023,0.009 z m -0.0014,-3.75243 0.81343,-0.99366 0.05964,3.77513 3.722673,-0.62997 -0.834936,0.98862 -2.812251,0.46207 0.219107,2.6873 -0.01391,0.001 -3.501627,0.36415 -0.274367,-3.5169 2.682183,-0.27475 -0.06625,-2.85567 z"
         style="font-size:9.87778px;fill:none;fill-opacity:1;stroke:#ffffff;stroke-width:0.6;stroke-miterlimit:4;stroke-dasharray:none;stroke-opacity:1"
         id="path1079-2-6-0" />
      <path
         d="m 32.173285,169.30325 -1.665319,1.41144 1.443154,0.007 z m 1.985083,2.35743 -1.429232,-0.006 -0.228551,1.41085 z m -5.394464,-0.78854 6.028301,-5.10928 0.651433,0.76861 -2.155117,1.82657 -0.40642,2.37734 2.383967,-0.0135 2.170189,-1.83934 0.651433,0.7686 -6.028302,5.10928 -0.651433,-0.76861 0.382665,-2.34426 -2.375283,-0.007 z"
         style="font-size:9.87778px;fill:none;fill-opacity:1;stroke:#ffffff;stroke-width:0.6;stroke-miterlimit:4;stroke-dasharray:none;stroke-opacity:1"
         id="path1081-0-0-0" />
      <path
         d="m 21.672802,152.90084 -1.242682,3.45501 5.760102,-3.29887 0.500721,0.8743 -0.0086,0.005 0.152179,0.26572 -0.69247,3.56106 -0.628355,-1.09716 0.43149,-2.30744 -0.171432,0.0982 -1.131449,0.64799 -4.808656,2.75396 -0.500721,-0.8743 1.204733,-3.42189 z"
         style="font-size:9.87778px;fill:none;fill-opacity:1;stroke:#ffffff;stroke-width:0.6;stroke-miterlimit:4;stroke-dasharray:none;stroke-opacity:1"
         id="path1083-3-1-6" />
      <path
         d="m 16.956039,139.22296 2.531391,-0.9004 0.33434,0.93997 -1.703105,0.60578 -1.219163,0.43365 -0.7073,0.25158 -1.140792,2.00983 -1.191242,0.42371 1.131484,-2.00651 -2.61515,0.93019 -0.334339,-0.93997 3.694714,-1.31418 1.131484,-2.00652 1.234466,-0.44958 z"
         style="font-size:9.87778px;fill:none;fill-opacity:1;stroke:#ffffff;stroke-width:0.6;stroke-miterlimit:4;stroke-dasharray:none;stroke-opacity:1"
         id="path1085-7-1-3" />
      <path
         d="m 10.580854,126.20787 2.276561,-2.81624 1.193371,-0.22827 -2.235917,2.81885 4.100427,-0.74983 0.149256,0.8162 -7.7733217,1.42148 -0.1492559,-0.81619 2.2765606,-2.81625 1.290538,-0.24604 -2.3233672,2.83485 z"
         style="font-size:9.87778px;fill:none;fill-opacity:1;stroke:#ffffff;stroke-width:0.6;stroke-miterlimit:4;stroke-dasharray:none;stroke-opacity:1"
         id="path1087-5-5-3" />
      <path
         d="m 9.9045351,107.66184 -2.1827067,0.0351 1.1113914,0.92063 z m 0.039714,3.08163 -1.101356,-0.91091 -1.0714742,0.94588 z m -3.6707261,-4.03086 7.901201,-0.12715 0.01621,1.0074 -2.82468,0.0455 -1.8219514,1.58033 1.8517894,1.50146 2.844432,-0.0458 0.01621,1.0074 -7.9012014,0.12716 -0.016212,-1.0074 1.7826043,-1.56982 -1.8321951,-1.51165 z"
         style="font-size:9.87778px;fill:none;fill-opacity:1;stroke:#ffffff;stroke-width:0.6;stroke-miterlimit:4;stroke-dasharray:none;stroke-opacity:1"
         id="path1089-5-1-7" />
      <path
         d="m 7.9212849,89.033431 7.8034611,1.245448 -0.158795,0.994941 -6.3890834,-1.019711 1.5078324,1.771081 0.0441,0.03705 -0.0098,-0.0016 0.0082,0.01131 -0.03082,0.0051 -2.0052823,1.220383 6.3890833,1.019711 -0.158794,0.994941 -7.8034612,-1.245448 0.1587946,-0.994941 2.0279041,-1.236779 -1.5421792,-1.806571 z"
         style="font-size:9.87778px;fill:none;fill-opacity:1;stroke:#ffffff;stroke-width:0.6;stroke-miterlimit:4;stroke-dasharray:none;stroke-opacity:1"
         id="path1091-5-3-1" />
      <path
         d="m 15.511774,78.407221 -4.567298,-1.478365 0.310275,-0.958568 7.518185,2.433522 -0.310274,0.958569 -1.719785,-0.556668 z"
         style="font-size:9.87778px;fill:none;fill-opacity:1;stroke:#ffffff;stroke-width:0.6;stroke-miterlimit:4;stroke-dasharray:none;stroke-opacity:1"
         id="path1093-5-4-7" />
      <path
         d="m 20.999299,62.986839 -0.0044,-0.01326 1.120628,0.563835 1.294835,3.316369 -0.528317,1.050037 -1.456829,-3.895467 -1.557597,1.05187 -1.085332,-0.546076 -0.07059,-0.03552 -1.290451,-3.303105 0.532757,-1.058861 1.492068,3.935313 1.54439,-1.069574 z"
         style="font-size:9.87778px;fill:none;fill-opacity:1;stroke:#ffffff;stroke-width:0.6;stroke-miterlimit:4;stroke-dasharray:none;stroke-opacity:1"
         id="path1095-7-0-8" />
      <path
         d="m 29.890983,48.850004 -0.002,-0.01382 1.007329,0.747666 0.706902,3.489296 -0.700569,0.943875 -0.767181,-4.087596 -1.714915,0.769162 -0.975601,-0.724117 -0.06345,-0.0471 -0.704858,-3.475478 0.706456,-0.951806 0.795066,4.132895 1.704938,-0.788868 z"
         style="font-size:9.87778px;fill:none;fill-opacity:1;stroke:#ffffff;stroke-width:0.6;stroke-miterlimit:4;stroke-dasharray:none;stroke-opacity:1"
         id="path1097-4-4-9" />
      <path
         d="m 37.989737,37.276162 3.60624,0.330149 0.852349,0.865877 -3.585847,-0.294896 2.899977,2.994309 -0.596024,0.577246 -5.497587,-5.676414 0.596024,-0.577246 3.60624,0.330149 0.921069,0.936832 -3.647695,-0.358755 z"
         style="font-size:9.87778px;fill:none;fill-opacity:1;stroke:#ffffff;stroke-width:0.6;stroke-miterlimit:4;stroke-dasharray:none;stroke-opacity:1"
         id="path1099-9-2-5" />
      <path
         d="m 50.313739,29.78549 -2.814867,-3.888739 0.816155,-0.590775 4.633526,6.401218 -0.816155,0.590774 -1.059919,-1.464278 z"
         style="font-size:9.87778px;fill:none;fill-opacity:1;stroke:#ffffff;stroke-width:0.6;stroke-miterlimit:4;stroke-dasharray:none;stroke-opacity:1"
         id="path1101-5-3-2" />
      <path
         d="m 63.464485,16.256796 -1.572087,6.458369 1.302288,2.551417 -0.739031,0.377214 -3.592519,-7.038391 0.739032,-0.377215 0.705031,1.381285 0.416987,-1.920712 1.002971,-0.511934 -0.836173,3.576384 0.426611,0.835809 1.214303,-4.856217 z"
         style="font-size:9.87778px;fill:none;fill-opacity:1;stroke:#ffffff;stroke-width:0.6;stroke-miterlimit:4;stroke-dasharray:none;stroke-opacity:1"
         id="path1103-1-7-3" />
      <path
         d="m 76.686803,13.622892 3.075851,1.911312 0.373909,1.156042 -3.07342,-1.870657 1.250515,3.976426 -0.791516,0.248918 -2.370644,-7.538249 0.791516,-0.248917 3.07585,1.911311 0.403543,1.250271 -3.10009,-1.955463 z"
         style="font-size:9.87778px;fill:none;fill-opacity:1;stroke:#ffffff;stroke-width:0.6;stroke-miterlimit:4;stroke-dasharray:none;stroke-opacity:1"
         id="path1105-1-8-2" />
      <path
         d="m 95.590609,6.9442928 -3.604665,5.5846552 0.392766,2.837502 -0.821898,0.113767 -1.083491,-7.8275919 0.821897,-0.1137665 0.212636,1.5361648 1.024273,-1.6774612 1.115432,-0.1543975 -1.963638,3.1038423 0.128664,0.929527 2.740868,-4.1886786 z"
         style="font-size:9.87778px;fill:none;fill-opacity:1;stroke:#ffffff;stroke-width:0.6;stroke-miterlimit:4;stroke-dasharray:none;stroke-opacity:1"
         id="path1107-9-6-2" />
      <path
         d="m 108.95647,9.3563343 1.10495,-0.2957982 -1.05596,-1.4914085 -0.0325,1.1848884 -5.4e-4,0.019748 z m 2.27636,4.9142157 -2.33131,-2.909779 -0.0433,1.579851 -0.0346,1.263881 -0.82942,-0.02274 0.21655,-7.899256 0.82942,0.022737 2.32428,3.1665054 -0.6283,0.2100505 -0.16948,0.054643 -0.0299,0.00906 -1.50506,0.4725781 2.2273,2.738943 z"
         style="font-size:9.87778px;fill:none;fill-opacity:1;stroke:#ffffff;stroke-width:0.6;stroke-miterlimit:4;stroke-dasharray:none;stroke-opacity:1"
         id="path1109-0-6-5" />
      <path
         d="m 125.74119,11.77419 1.4516,-0.945573 -1.0253,-1.5073487 -1.52486,1.0118397 0.99001,1.430054 0.002,-0.0097 0.0469,0.06948 0.0135,-0.01751 z m 1.80608,3.289187 -0.23523,1.26242 -1.86803,-3.281098 -2.96079,2.342833 0.2565,-1.268349 2.24336,-1.757734 -1.48463,-2.250661 0.0116,-0.0078 2.89485,-2.0034584 1.93209,2.9514194 -2.21941,1.530948 1.4316,2.471795 z"
         style="font-size:9.87778px;fill:none;fill-opacity:1;stroke:#ffffff;stroke-width:0.6;stroke-miterlimit:4;stroke-dasharray:none;stroke-opacity:1"
         id="path1111-4-6-0" />
      <path
         d="m 141.45918,17.777482 -0.95231,2.512324 -0.93288,-0.353614 0.6407,-1.690277 0.45865,-1.209979 0.26609,-0.701973 -0.79349,-2.17053 0.44815,-1.18227 0.79698,2.161293 0.98382,-2.595452 0.93288,0.353614 -1.38994,3.666884 0.79698,2.161294 -0.45641,1.231954 z"
         style="font-size:9.87778px;fill:none;fill-opacity:1;stroke:#ffffff;stroke-width:0.6;stroke-miterlimit:4;stroke-dasharray:none;stroke-opacity:1"
         id="path1113-4-6-4" />
      <path
         d="m 157.69883,21.835422 -3.0894,5.253535 -0.8685,-0.510728 0.53577,-0.911067 0.66094,-1.123933 1.87267,-3.184476 -2.73938,0.955924 0.67446,-1.12744 3.4355,-1.165358 0.65153,3.568783 -0.65744,1.137455 z"
         style="font-size:9.87778px;fill:none;fill-opacity:1;stroke:#ffffff;stroke-width:0.6;stroke-miterlimit:4;stroke-dasharray:none;stroke-opacity:1"
         id="path1115-7-4-0" />
      <path
         d="m 174.49642,31.842793 -5.12301,6.016638 -0.76712,-0.653184 4.19446,-4.926122 -2.29695,0.366447 -0.0546,0.01839 0.006,-0.0075 -0.0139,0.0011 0.0117,-0.02897 8.8e-4,-2.347443 -4.19447,4.926122 -0.76712,-0.653184 5.12301,-6.016637 0.76712,0.653183 0.001,2.375293 2.34513,-0.377319 z"
         style="font-size:9.87778px;fill:none;fill-opacity:1;stroke:#ffffff;stroke-width:0.6;stroke-miterlimit:4;stroke-dasharray:none;stroke-opacity:1"
         id="path1117-4-0-7" />
      <path
         d="m 180.96976,46.05397 -2.06105,1.723586 -0.64001,-0.765315 1.38666,-1.159619 0.99264,-0.830109 0.57588,-0.48159 0.37168,-2.280936 0.9699,-0.811099 -0.3641,2.274599 2.12924,-1.780615 0.64001,0.765315 -3.00822,2.515674 -0.3641,2.2746 -1.00145,0.85036 z"
         style="font-size:9.87778px;fill:none;fill-opacity:1;stroke:#ffffff;stroke-width:0.6;stroke-miterlimit:4;stroke-dasharray:none;stroke-opacity:1"
         id="path1119-6-3-5" />
      <path
         d="m 194.15497,60.171409 -2.32442,-0.66196 -0.007,0.02696 -0.0184,-0.01225 -0.61662,2.344014 z m -2.99747,-1.77908 0.004,-0.01348 0.0221,-0.0012 0.62396,-2.370971 -3.00965,1.721285 z m 5.36072,1.394716 -1.22615,0.701264 -4.40729,2.520629 -1.22615,0.701265 1.23947,-4.41849 -4.43194,-1.163502 0.0343,-0.01962 -0.049,-0.0061 6.85959,-3.923158 -0.0196,0.04534 0.0343,-0.01962 -1.24437,4.409915 z"
         style="font-size:9.87778px;fill:none;fill-opacity:1;stroke:#ffffff;stroke-width:0.6;stroke-miterlimit:4;stroke-dasharray:none;stroke-opacity:1"
         id="path1121-1-0-8" />
      <path
         d="m 199.82347,74.037532 1.00457,-1.526498 -1.11538,0.401162 -0.0186,0.0067 -0.5484,0.197238 z m 0.0914,1.363253 -0.42439,-0.508688 -0.1126,-0.137955 -0.0193,-0.02454 -1.05874,-1.309267 -0.84583,0.304214 -1.68237,0.605086 -1.18975,0.427906 -0.28081,-0.78077 7.4359,-2.674412 0.28082,0.78077 z"
         style="font-size:9.87778px;fill:none;fill-opacity:1;stroke:#ffffff;stroke-width:0.6;stroke-miterlimit:4;stroke-dasharray:none;stroke-opacity:1"
         id="path1123-5-9-0" />
      <path
         d="m 207.12856,91.549243 -7.7773,1.399531 -0.17844,-0.991606 6.36767,-1.145866 -2.00784,-1.174264 -0.0538,-0.02042 0.01,-0.0018 -0.0115,-0.008 0.0274,-0.01497 1.49021,-1.813775 -6.36767,1.145867 -0.17844,-0.991607 7.7773,-1.399531 0.17844,0.991606 -1.50614,1.836717 2.05196,1.196432 z"
         style="font-size:9.87778px;fill:none;fill-opacity:1;stroke:#ffffff;stroke-width:0.6;stroke-miterlimit:4;stroke-dasharray:none;stroke-opacity:1"
         id="path1125-4-9-0" />
      <path
         d="m 201.66621,104.97018 1.4858,1.07737 0.30193,-1.10042 z m 3.58533,-0.0462 0.34008,1.09214 1.44765,-1.11519 -1.18523,0.0153 -0.0197,2.5e-4 z m -1.498,1.80734 -0.21915,0.62518 -3.13243,-2.36999 -0.0107,-0.82967 7.90157,-0.10187 0.0107,0.82967 -3.0703,2.44996 -0.23519,-0.61932 -0.0614,-0.16715 -0.0103,-0.0295 -0.57361,-1.58306 -0.53261,1.59732 0.01,-1.2e-4 -0.009,0.0297 -0.0571,0.16868 z"
         style="font-size:9.87778px;fill:none;fill-opacity:1;stroke:#ffffff;stroke-width:0.6;stroke-miterlimit:4;stroke-dasharray:none;stroke-opacity:1"
         id="path1127-6-6-6" />
      <path
         d="m 204.49865,125.15318 -1.39393,-1.97436 -0.0226,0.0164 -0.007,-0.0211 -1.95136,1.43764 z m -1.21665,-3.26646 0.0113,-0.008 0.0179,0.0129 1.974,-1.45402 -3.42332,-0.54924 z m 3.29759,4.45067 -1.39468,-0.22376 -5.01307,-0.80429 -1.39469,-0.22376 3.73837,-2.66156 -2.71971,-3.68768 0.039,0.006 -0.0343,-0.0355 7.80245,1.25181 -0.0437,0.023 0.039,0.006 -3.73681,2.65181 z"
         style="font-size:9.87778px;fill:none;fill-opacity:1;stroke:#ffffff;stroke-width:0.6;stroke-miterlimit:4;stroke-dasharray:none;stroke-opacity:1"
         id="path1129-1-4-3" />
      <path
         d="m 201.69197,143.45809 -7.44112,-2.65986 0.33914,-0.94875 6.09241,2.17777 -1.15625,-2.01826 -0.0365,-0.0445 0.009,0.003 -0.006,-0.0126 0.0312,6.7e-4 2.19558,-0.83062 -6.09242,-2.17776 0.33914,-0.94875 7.44112,2.65987 -0.33914,0.94875 -2.22083,0.84257 1.18348,2.05946 z"
         style="font-size:9.87778px;fill:none;fill-opacity:1;stroke:#ffffff;stroke-width:0.6;stroke-miterlimit:4;stroke-dasharray:none;stroke-opacity:1"
         id="path1131-3-3-0" />
      <path
         d="m 193.14133,155.24008 1.81114,-0.24316 -1.03447,-0.5787 -0.0172,-0.01 -0.50862,-0.28453 z m -0.96897,0.96328 0.10554,-0.65401 0.0303,-0.17549 0.006,-0.0307 0.29366,-1.65797 -0.78447,-0.43885 -1.56032,-0.87287 -1.10344,-0.61727 0.40509,-0.72413 6.89646,3.85798 -0.40509,0.72412 z"
         style="font-size:9.87778px;fill:none;fill-opacity:1;stroke:#ffffff;stroke-width:0.6;stroke-miterlimit:4;stroke-dasharray:none;stroke-opacity:1"
         id="path1133-4-8-7" />
      <path
         d="m 184.52114,166.5085 -3.27848,-2.57435 0.51243,-0.65259 6.21514,4.88029 -0.51244,0.65259 -3.61774,0.16087 -1.03937,-0.80358 3.66269,-0.13813 -0.9478,-0.74425 z"
         style="font-size:9.87778px;fill:none;fill-opacity:1;stroke:#ffffff;stroke-width:0.6;stroke-miterlimit:4;stroke-dasharray:none;stroke-opacity:1"
         id="path1135-4-1-3" />
      <path
         d="m 173.14861,178.92993 -0.10438,1.72927 1.82152,0.0735 0.0947,-1.82758 -1.7384,-0.0558 0.007,0.007 -0.0837,-0.004 0.006,0.0212 z m -3.71803,-0.50688 -0.87432,-0.94053 3.74841,0.45229 -0.1199,-3.7737 0.86642,0.96116 0.0769,2.84892 2.69221,0.14693 -6.1e-4,0.014 -0.11354,3.51868 -3.52165,-0.20456 0.0911,-2.69468 -2.83832,-0.32118 z"
         style="font-size:9.87778px;fill:none;fill-opacity:1;stroke:#ffffff;stroke-width:0.6;stroke-miterlimit:4;stroke-dasharray:none;stroke-opacity:1"
         id="path1137-7-0-9" />
      <path
         d="m 160.27351,189.86599 2.11414,0.63374 -2.91489,-4.5142 -0.28697,2.19593 -2.1195,-0.64204 -0.68586,-1.06216 2.10101,0.59519 0.30546,-2.14909 0.84641,-0.54654 0.98057,1.51856 0.70193,1.08706 2.60411,4.03291 -0.84641,0.54654 -2.07905,-0.5976 -0.32742,2.1515 -0.68586,-1.06217 z"
         style="font-size:9.87778px;fill:none;fill-opacity:1;stroke:#ffffff;stroke-width:0.6;stroke-miterlimit:4;stroke-dasharray:none;stroke-opacity:1"
         id="path1139-8-6-4" />
      <path
         d="m 144.8607,201.14233 -3.10321,-7.26741 0.9266,-0.39566 2.54075,5.95019 0.69555,-2.21957 0.008,-0.0571 0.004,0.009 0.005,-0.013 0.0207,0.0234 2.10108,1.04689 -2.54075,-5.95019 0.92659,-0.39566 3.10321,7.26741 -0.92659,0.39565 -2.12701,-1.05729 -0.70728,2.26755 z"
         style="font-size:9.87778px;fill:none;fill-opacity:1;stroke:#ffffff;stroke-width:0.6;stroke-miterlimit:4;stroke-dasharray:none;stroke-opacity:1"
         id="path1141-5-0-2" />
      <path
         d="m 131.39323,202.2971 -0.98958,0.57373 1.40837,1.16441 -0.27765,-1.15235 -0.005,-0.0192 z m -3.47919,-4.1505 3.00949,2.2011 -0.3702,-1.53647 -0.29616,-1.22918 0.80665,-0.19436 1.85101,7.68238 -0.80665,0.19435 -3.06965,-2.45077 0.55177,-0.36664 0.14937,-0.0969 0.0265,-0.0165 1.32973,-0.84874 -2.86452,-2.06329 z"
         style="font-size:9.87778px;fill:none;fill-opacity:1;stroke:#ffffff;stroke-width:0.6;stroke-miterlimit:4;stroke-dasharray:none;stroke-opacity:1"
         id="path1143-1-5-8" />
    </g>
  </g>
  <g
     inkscape:groupmode="layer"
     id="layer8"
     inkscape:label="Inner Base Glow"
     style="display:inline"
     sodipodi:insensitive="true">
    <path
       id="path835-7-4-6-0"
       style="display:inline;mix-blend-mode:luminosity;fill:none;stroke:#f0ff57;stroke-width:3.052;stroke-miterlimit:4;stroke-dasharray:none;stroke-dashoffset:1.51937;stroke-opacity:1;filter:url(#filter1968-0-5)"
       d="M 107.31137,15.683203 A 91.628181,91.628181 0 0 0 15.683188,107.31136 91.628181,91.628181 0 0 0 107.31137,198.93953 91.628181,91.628181 0 0 0 198.93955,107.31136 91.628181,91.628181 0 0 0 107.31137,15.683203 Z" />
  </g>
  <g
     inkscape:groupmode="layer"
     id="layer6"
     inkscape:label="Inner Base Line"
     style="display:inline"
     sodipodi:insensitive="true">
    <path
       id="path835-7-8-5"
       style="display:inline;opacity:0.998;fill:none;fill-opacity:1;stroke:#ffffff;stroke-width:1.452;stroke-miterlimit:4;stroke-dasharray:none;stroke-dashoffset:1.51937;stroke-opacity:1"
       d="M 107.31137,15.6832 A 91.628181,91.628181 0 0 0 15.683193,107.31136 91.628181,91.628181 0 0 0 107.31137,198.93954 91.628181,91.628181 0 0 0 198.93955,107.31136 91.628181,91.628181 0 0 0 107.31137,15.6832 Z" />
  </g>
</svg>
