<?xml version="1.0" encoding="UTF-8" standalone="no"?>
<svg
   xmlns:dc="http://purl.org/dc/elements/1.1/"
   xmlns:cc="http://creativecommons.org/ns#"
   xmlns:rdf="http://www.w3.org/1999/02/22-rdf-syntax-ns#"
   xmlns:svg="http://www.w3.org/2000/svg"
   xmlns="http://www.w3.org/2000/svg"
   xmlns:sodipodi="http://sodipodi.sourceforge.net/DTD/sodipodi-0.dtd"
   xmlns:inkscape="http://www.inkscape.org/namespaces/inkscape"
   width="203.13525mm"
   height="203.31235mm"
   viewBox="0 0 203.13525 203.31235"
   version="1.1"
   id="svg8"
   inkscape:version="1.0.2-2 (e86c870879, 2021-01-15)"
   sodipodi:docname="Magic Circle with text.svg">
  <defs
     id="defs2">
    <rect
       x="62.2738"
       y="63.877419"
       width="231.25951"
       height="10.72551"
       id="rect896" />
    <filter
       inkscape:collect="always"
       style="color-interpolation-filters:sRGB"
       id="filter985"
       x="-0.010669981"
       width="1.02134"
       y="-0.010661179"
       height="1.0213224">
      <feGaussianBlur
         inkscape:collect="always"
         stdDeviation="0.88438771"
         id="feGaussianBlur987" />
    </filter>
  </defs>
  <sodipodi:namedview
     id="base"
     pagecolor="#ffffff"
     bordercolor="#666666"
     borderopacity="1.0"
     inkscape:pageopacity="0.0"
     inkscape:pageshadow="2"
     inkscape:zoom="1.979899"
     inkscape:cx="542.7493"
     inkscape:cy="161.18455"
     inkscape:document-units="mm"
     inkscape:current-layer="layer5"
     inkscape:document-rotation="0"
     showgrid="false"
     fit-margin-top="0"
     fit-margin-left="0"
     fit-margin-right="0"
     fit-margin-bottom="0"
     inkscape:window-width="1920"
     inkscape:window-height="986"
     inkscape:window-x="-11"
     inkscape:window-y="-11"
     inkscape:window-maximized="1" />
  <metadata
     id="metadata5">
    <rdf:RDF>
      <cc:Work
         rdf:about="">
        <dc:format>image/svg+xml</dc:format>
        <dc:type
           rdf:resource="http://purl.org/dc/dcmitype/StillImage" />
        <dc:title></dc:title>
      </cc:Work>
    </rdf:RDF>
  </metadata>
  <g
     inkscape:groupmode="layer"
     id="layer5"
     inkscape:label="Letter Glow"
     style="display:inline"
     sodipodi:insensitive="true"
     transform="translate(-5.648872,-5.6825731)">
    <g
       aria-label="hellomynameissaifafrontendwebdeveloper"
       id="text924-9"
       style="font-size:9.87778px;line-height:0;font-family:floki;-inkscape-font-specification:floki;letter-spacing:10.2791px;display:inline;fill:#e5ff07;fill-opacity:1;stroke:#e3fc00;stroke-width:0.264583;stroke-opacity:1;filter:url(#filter985)">
      <path
         d="m 101.97181,206.71525 0.24403,-7.89845 1.00705,0.0311 -0.0558,1.80677 2.96845,3.71859 0.16777,-5.43019 1.00705,0.0311 -0.24403,7.89845 -1.00705,-0.0311 0.0372,-1.20452 -2.96936,-3.68897 -0.14825,4.79832 z"
         style="font-size:9.87778px;fill:#e5ff07;fill-opacity:1;stroke:#e3fc00;stroke-width:0.264583;stroke-opacity:1"
         id="path1072" />
      <path
         d="m 84.749221,204.28835 1.607346,-7.73703 0.986471,0.20494 -1.316015,6.33469 1.83935,-1.42375 0.03906,-0.0423 -0.002,0.01 0.01168,-0.008 0.0036,0.031 1.125716,2.05992 1.316014,-6.3347 0.986471,0.20494 -1.607346,7.73703 -0.986471,-0.20494 -1.14104,-2.08328 -1.8764,1.45642 z"
         style="font-size:9.87778px;fill:#e5ff07;fill-opacity:1;stroke:#e3fc00;stroke-width:0.264583;stroke-opacity:1"
         id="path1074" />
      <path
         d="m 73.701352,197.04072 1.506189,-3.88679 0.773674,0.29981 -2.855334,7.36833 -0.773674,-0.29981 -1.209058,-3.41353 0.465488,-1.22855 1.200424,3.46314 0.435438,-1.12367 z"
         style="font-size:9.87778px;fill:#e5ff07;fill-opacity:1;stroke:#e3fc00;stroke-width:0.264583;stroke-opacity:1"
         id="path1076" />
      <path
         d="m 60.384217,190.8409 2.085059,-3.60947 0.718473,0.41503 -3.95272,6.8426 -0.718472,-0.41504 -0.670657,-3.55867 0.648587,-1.14253 0.654505,3.60639 0.602789,-1.0435 z"
         style="font-size:9.87778px;fill:#e5ff07;fill-opacity:1;stroke:#e3fc00;stroke-width:0.264583;stroke-opacity:1"
         id="path1078" />
      <path
         d="m 46.830917,181.59335 -1.72646,0.14355 0.187284,1.81336 1.822383,-0.16712 -0.192893,-1.72857 -0.0063,0.008 -0.0083,-0.0834 -0.02016,0.009 z m -0.02908,-3.75231 0.806088,-0.99963 0.08745,3.77459 3.71793,-0.65738 -0.82763,0.99475 -2.80877,0.48277 0.238897,2.68561 -0.0139,0.001 -3.49885,0.38993 -0.300267,-3.51478 2.680085,-0.29451 -0.08729,-2.8551 z"
         style="font-size:9.87778px;fill:#e5ff07;fill-opacity:1;stroke:#e3fc00;stroke-width:0.264583;stroke-opacity:1"
         id="path1080" />
      <path
         d="m 33.880175,169.01726 -1.652297,1.42666 1.443157,-0.006 z m 2.006632,2.33911 -1.429225,0.007 -0.215596,1.41289 z m -5.401473,-0.73901 5.981164,-5.16438 0.658459,0.7626 -2.138267,1.84627 -0.384587,2.38098 2.383743,-0.0354 2.153219,-1.85917 0.658458,0.7626 -5.981164,5.16438 -0.658459,-0.7626 0.361138,-2.34768 -2.375246,0.015 z"
         style="font-size:9.87778px;fill:#e5ff07;fill-opacity:1;stroke:#e3fc00;stroke-width:0.264583;stroke-opacity:1"
         id="path1082" />
      <path
         d="m 23.465625,153.07643 -1.204866,3.46838 5.723723,-3.36159 0.510241,0.86878 -0.0085,0.005 0.155074,0.26404 -0.653529,3.56842 -0.640303,-1.09024 0.406258,-2.31202 -0.170349,0.10005 -1.124302,0.66031 -4.778287,2.80633 -0.510241,-0.86878 1.167281,-3.43485 z"
         style="font-size:9.87778px;fill:#e5ff07;fill-opacity:1;stroke:#e3fc00;stroke-width:0.264583;stroke-opacity:1"
         id="path1084" />
      <path
         d="m 18.770351,139.84866 2.519667,-0.93271 0.346335,0.93562 -1.695217,0.62751 -1.213516,0.44921 -0.704025,0.26061 -1.114991,2.02426 -1.185725,0.43891 1.105727,-2.02082 -2.603039,0.96356 -0.346335,-0.93561 3.677603,-1.36133 1.105727,-2.02083 1.228614,-0.46533 z"
         style="font-size:9.87778px;fill:#e5ff07;fill-opacity:1;stroke:#e3fc00;stroke-width:0.264583;stroke-opacity:1"
         id="path1086" />
      <path
         d="m 12.334855,127.34248 2.234531,-2.84971 1.189853,-0.24595 -2.193852,2.85171 4.088851,-0.81058 0.161348,0.8139 -7.751377,1.53664 -0.1613484,-0.81389 2.2345304,-2.84971 1.286746,-0.26516 -2.281056,2.86901 z"
         style="font-size:9.87778px;fill:#e5ff07;fill-opacity:1;stroke:#e3fc00;stroke-width:0.264583;stroke-opacity:1"
         id="path1088" />
      <path
         d="m 11.41719,109.24213 -2.1818324,0.0711 1.1264054,0.9022 z m 0.09047,3.08055 -1.116211,-0.89264 -1.055748,0.9634 z m -3.7366257,-3.96984 7.8980347,-0.25729 0.0328,1.007 -2.823547,0.092 -1.795672,1.61013 1.87627,1.47075 2.843293,-0.0926 0.0328,1.007 -7.8980341,0.25729 -0.032805,-1.007 1.7565036,-1.59897 -1.856847,-1.48126 z"
         style="font-size:9.87778px;fill:#e5ff07;fill-opacity:1;stroke:#e3fc00;stroke-width:0.264583;stroke-opacity:1"
         id="path1090" />
      <path
         d="m 9.0810611,91.090926 7.8252509,1.100269 -0.140284,0.997719 -6.406924,-0.900845 1.540473,1.742765 0.04478,0.03622 -0.0098,-0.0014 0.0084,0.01116 -0.03072,0.0057 -1.9822652,1.257425 6.4069242,0.900845 -0.140284,0.99772 -7.8252512,-1.100269 0.1402843,-0.997719 2.0045789,-1.274238 -1.5754742,-1.77761 z"
         style="font-size:9.87778px;fill:#e5ff07;fill-opacity:1;stroke:#e3fc00;stroke-width:0.264583;stroke-opacity:1"
         id="path1092" />
      <path
         d="m 16.364506,80.7468 -4.597181,-1.382644 0.290185,-0.96484 7.567375,2.275957 -0.290185,0.96484 -1.731037,-0.520625 z"
         style="font-size:9.87778px;fill:#e5ff07;fill-opacity:1;stroke:#e3fc00;stroke-width:0.264583;stroke-opacity:1"
         id="path1094" />
      <path
         d="m 21.355519,65.61562 -0.0047,-0.01316 1.133305,0.537898 1.370807,3.285695 -0.504015,1.061916 -1.546083,-3.860912 -1.53298,1.087434 -1.09761,-0.520956 -0.07139,-0.03388 -1.366118,-3.272536 0.50825,-1.07084 1.582231,3.899936 1.519368,-1.104828 z"
         style="font-size:9.87778px;fill:#e5ff07;fill-opacity:1;stroke:#e3fc00;stroke-width:0.264583;stroke-opacity:1"
         id="path1096" />
      <path
         d="m 29.687137,51.644917 -0.0024,-0.01376 1.025492,0.722553 0.792886,3.470768 -0.677037,0.960894 -0.867928,-4.067397 -1.69539,0.811293 -0.993192,-0.699794 -0.0646,-0.04552 -0.790502,-3.457004 0.682727,-0.968968 0.896923,4.111993 1.68493,-0.830747 z"
         style="font-size:9.87778px;fill:#e5ff07;fill-opacity:1;stroke:#e3fc00;stroke-width:0.264583;stroke-opacity:1"
         id="path1098" />
      <path
         d="m 37.206917,40.202889 3.613752,0.234027 0.875098,0.842879 -3.592427,-0.199329 2.978664,2.916044 -0.580445,0.592909 -5.646756,-5.528045 0.580444,-0.59291 3.613752,0.234028 0.945683,0.911979 -3.655954,-0.261519 z"
         style="font-size:9.87778px;fill:#e5ff07;fill-opacity:1;stroke:#e3fc00;stroke-width:0.264583;stroke-opacity:1"
         id="path1100" />
      <path
         d="m 48.991905,32.664926 -2.926516,-3.805427 0.79867,-0.614207 4.817311,6.264076 -0.79867,0.614208 -1.10196,-1.432908 z"
         style="font-size:9.87778px;fill:#e5ff07;fill-opacity:1;stroke:#e3fc00;stroke-width:0.264583;stroke-opacity:1"
         id="path1102" />
      <path
         d="m 61.358595,18.984836 -1.368763,6.504497 1.381666,2.509319 -0.726837,0.400206 -3.811492,-6.922259 0.726837,-0.400207 0.748005,1.358494 0.356544,-1.932845 0.986422,-0.543138 -0.723598,3.60085 0.452614,0.822018 1.061403,-4.891912 z"
         style="font-size:9.87778px;fill:#e5ff07;fill-opacity:1;stroke:#e3fc00;stroke-width:0.264583;stroke-opacity:1"
         id="path1104" />
      <path
         d="m 74.084587,16.10286 3.138164,1.807178 0.412434,1.142865 -3.134373,-1.766628 1.383048,3.932293 -0.782731,0.275299 -2.621892,-7.454584 0.782731,-0.275299 3.138164,1.807178 0.445208,1.236047 -3.163869,-1.850491 z"
         style="font-size:9.87778px;fill:#e5ff07;fill-opacity:1;stroke:#e3fc00;stroke-width:0.264583;stroke-opacity:1"
         id="path1106" />
      <path
         d="m 92.321776,8.8871655 -3.405397,5.7083505 0.492627,2.821879 -0.817372,0.142692 -1.358971,-7.7844941 0.817372,-0.142692 0.266698,1.5277071 0.964456,-1.7125532 1.10929,-0.1936534 -1.852913,3.1711866 0.161377,0.924409 2.591387,-4.2827678 z"
         style="font-size:9.87778px;fill:#e5ff07;fill-opacity:1;stroke:#e3fc00;stroke-width:0.264583;stroke-opacity:1"
         id="path1108" />
      <path
         d="m 105.33108,10.857028 1.09342,-0.335925 -1.10968,-1.4518794 0.0108,1.1852844 1.8e-4,0.01975 z m 2.45418,4.82787 -2.43595,-2.822764 0.0144,1.58038 0.0115,1.264303 -0.8297,0.0075 -0.0719,-7.9018969 0.8297,-0.00755 2.43828,3.0795749 -0.6202,0.232839 -0.16738,0.06079 -0.0295,0.01015 -1.48682,0.527188 2.32578,2.655836 z"
         style="font-size:9.87778px;fill:#e5ff07;fill-opacity:1;stroke:#e3fc00;stroke-width:0.264583;stroke-opacity:1"
         id="path1110" />
      <path
         d="m 121.75691,12.607062 1.41334,-1.001866 -1.08372,-1.465909 -1.48393,1.07096 1.04542,1.390059 10e-4,-0.0098 0.0496,0.06759 0.0128,-0.01802 z m 1.9339,3.2157 -0.18545,1.270686 -1.99549,-3.205183 -2.86647,2.457333 0.20649,-1.277446 2.17257,-1.844503 -1.57189,-2.190604 0.0113,-0.0083 2.81391,-2.1156297 2.04654,2.8732437 -2.15755,1.616951 1.52759,2.41365 z"
         style="font-size:9.87778px;fill:#e5ff07;fill-opacity:1;stroke:#e3fc00;stroke-width:0.264583;stroke-opacity:1"
         id="path1112" />
      <path
         d="m 137.28202,17.868985 -0.84753,2.549577 -0.94672,-0.314709 0.57021,-1.71534 0.40819,-1.227922 0.23681,-0.712382 -0.88262,-2.135838 0.39884,-1.199801 0.88574,2.126464 0.87557,-2.633938 0.94672,0.314709 -1.23702,3.721258 0.88573,2.126464 -0.40504,1.249785 z"
         style="font-size:9.87778px;fill:#e5ff07;fill-opacity:1;stroke:#e3fc00;stroke-width:0.264583;stroke-opacity:1"
         id="path1114" />
      <path
         d="m 153.27884,21.06539 -2.86027,5.381714 -0.88969,-0.472849 0.49603,-0.933296 0.61193,-1.151356 1.73378,-3.262173 -2.69567,1.073017 0.62528,-1.155442 3.38212,-1.312237 0.80463,3.537411 -0.60784,1.164714 z"
         style="font-size:9.87778px;fill:#e5ff07;fill-opacity:1;stroke:#e3fc00;stroke-width:0.264583;stroke-opacity:1"
         id="path1116" />
      <path
         d="m 170.13208,30.086951 -4.84951,6.239188 -0.79549,-0.618312 3.97053,-5.108335 -2.27832,0.468551 -0.0537,0.02081 0.006,-0.0078 -0.0139,0.0017 0.0104,-0.02946 -0.10385,-2.345146 -3.97053,5.108335 -0.79549,-0.618311 4.8495,-6.239188 0.7955,0.618311 0.10731,2.372868 2.32597,-0.481562 z"
         style="font-size:9.87778px;fill:#e5ff07;fill-opacity:1;stroke:#e3fc00;stroke-width:0.264583;stroke-opacity:1"
         id="path1118" />
      <path
         d="m 176.92493,43.691019 -1.97873,1.817498 -0.67488,-0.734748 1.33128,-1.222802 0.95299,-0.875339 0.55288,-0.50783 0.26528,-2.295744 0.93117,-0.855293 -0.25801,2.289062 2.0442,-1.877636 0.67488,0.734748 -2.88807,2.652745 -0.25801,2.289062 -0.96086,0.895977 z"
         style="font-size:9.87778px;fill:#e5ff07;fill-opacity:1;stroke:#e3fc00;stroke-width:0.264583;stroke-opacity:1"
         id="path1120" />
      <path
         d="m 190.50187,56.819345 -2.35381,-0.548389 -0.006,0.02728 -0.019,-0.01134 -0.50216,2.371174 z m -3.08027,-1.631534 0.003,-0.01364 0.022,-0.0023 0.50817,-2.398455 -2.92257,1.865299 z m 5.42208,1.132947 -1.19068,0.759936 -4.27978,2.731522 -1.19068,0.759937 1.0236,-4.473429 -4.48318,-0.947074 0.0333,-0.02126 -0.0493,-0.0037 6.66114,-4.251395 -0.0174,0.04624 0.0333,-0.02126 -1.02891,4.465103 z"
         style="font-size:9.87778px;fill:#e5ff07;fill-opacity:1;stroke:#e3fc00;stroke-width:0.264583;stroke-opacity:1"
         id="path1122" />
      <path
         d="m 196.64977,69.996509 0.92586,-1.575481 -1.09361,0.457214 -0.0182,0.0076 -0.53768,0.224796 z m 0.16044,1.356863 -0.44965,-0.48651 -0.11945,-0.132066 -0.0205,-0.02353 -1.12378,-1.253887 -0.82932,0.34672 -1.64952,0.68963 -1.16651,0.487694 -0.32005,-0.765523 7.2907,-3.048089 0.32005,0.765523 z"
         style="font-size:9.87778px;fill:#e5ff07;fill-opacity:1;stroke:#e3fc00;stroke-width:0.264583;stroke-opacity:1"
         id="path1124" />
      <path
         d="m 204.71732,86.68782 -7.6929,1.80677 -0.23036,-0.980845 6.29856,-1.479293 -2.06683,-1.067002 -0.0549,-0.01756 0.01,-0.0023 -0.0119,-0.0074 0.0266,-0.01639 1.39272,-1.889665 -6.29857,1.479293 -0.23036,-0.980845 7.6929,-1.80677 0.23037,0.980844 -1.40744,1.913415 2.11208,1.086817 z"
         style="font-size:9.87778px;fill:#e5ff07;fill-opacity:1;stroke:#e3fc00;stroke-width:0.264583;stroke-opacity:1"
         id="path1126" />
      <path
         d="m 199.91314,99.951713 1.54138,0.996237 0.24255,-1.115014 z m 3.57771,-0.23821 0.39809,1.072357 1.38584,-1.191133 -1.18272,0.07875 -0.0197,0.0013 z m -1.39904,1.884987 -0.18535,0.63602 -3.25489,-2.1988 -0.0551,-0.8279 7.88477,-0.524981 0.0551,0.827901 -2.93465,2.61091 -0.26803,-0.60583 -0.0703,-0.16362 -0.0118,-0.0289 -0.65758,-1.55006 -0.44628,1.62356 0.01,-6.6e-4 -0.008,0.0302 -0.048,0.17148 z"
         style="font-size:9.87778px;fill:#e5ff07;fill-opacity:1;stroke:#e3fc00;stroke-width:0.264583;stroke-opacity:1"
         id="path1128" />
      <path
         d="m 203.85407,119.51331 -1.50254,-1.89303 -0.0217,0.0176 -0.008,-0.0207 -1.86761,1.54488 z m -1.39803,-3.19304 0.0108,-0.009 0.0186,0.0119 1.88929,-1.56251 -3.44875,-0.35626 z m 3.54214,4.2586 -1.40504,-0.14514 -5.05031,-0.5217 -1.40504,-0.14515 3.58312,-2.86715 -2.92236,-3.52924 0.0393,0.004 -0.0363,-0.0335 7.8604,0.81199 -0.0423,0.0254 0.0393,0.004 -3.58211,2.85732 z"
         style="font-size:9.87778px;fill:#e5ff07;fill-opacity:1;stroke:#e3fc00;stroke-width:0.264583;stroke-opacity:1"
         id="path1130" />
      <path
         d="m 202.19071,137.51642 -7.58349,-2.22164 0.28325,-0.96689 6.20899,1.81897 -1.27191,-1.94744 -0.0391,-0.0423 0.009,0.003 -0.007,-0.0123 0.0312,-0.001 2.14343,-0.95718 -6.20899,-1.81897 0.28326,-0.96689 7.5835,2.22164 -0.28326,0.96689 -2.16794,0.97058 1.3015,1.98699 z"
         style="font-size:9.87778px;fill:#e5ff07;fill-opacity:1;stroke:#e3fc00;stroke-width:0.264583;stroke-opacity:1"
         id="path1132" />
      <path
         d="m 194.51161,149.37462 1.79329,-0.35135 -1.06732,-0.51561 -0.0178,-0.009 -0.52476,-0.25351 z m -0.90945,1.01967 0.0661,-0.65916 0.0197,-0.17699 0.004,-0.031 0.19369,-1.6726 -0.80939,-0.391 -1.60987,-0.7777 -1.13847,-0.54998 0.36092,-0.74713 7.11545,3.43737 -0.36092,0.74713 z"
         style="font-size:9.87778px;fill:#e5ff07;fill-opacity:1;stroke:#e3fc00;stroke-width:0.264583;stroke-opacity:1"
         id="path1134" />
      <path
         d="m 187.39294,166.45189 -6.45857,-4.55325 0.58054,-0.82347 5.28795,3.72797 -0.5743,-2.25399 -0.0233,-0.0527 0.008,0.006 -0.002,-0.0138 0.0299,0.009 2.33775,-0.2131 -5.28795,-3.72797 0.58053,-0.82347 6.45857,4.55325 -0.58054,0.82347 -2.36528,0.21786 0.58952,2.30098 z"
         style="font-size:9.87778px;fill:#e5ff07;fill-opacity:1;stroke:#e3fc00;stroke-width:0.264583;stroke-opacity:1"
         id="path1136" />
      <path
         d="m 176.36258,173.7054 -2.97241,-2.92242 0.58171,-0.59166 5.6349,5.54013 -0.58171,0.59167 -3.61325,-0.24178 -0.94372,-0.914 3.65538,0.26935 -0.85932,-0.84487 z"
         style="font-size:9.87778px;fill:#e5ff07;fill-opacity:1;stroke:#e3fc00;stroke-width:0.264583;stroke-opacity:1"
         id="path1138" />
      <path
         d="m 164.02117,184.51444 -0.29248,1.70755 1.80263,0.27184 0.29362,-1.80632 -1.72193,-0.24522 0.006,0.008 -0.0828,-0.0128 0.004,0.0218 z m -3.64051,-0.90961 -0.76646,-1.03033 3.67667,0.85866 0.29265,-3.76424 0.75635,1.04997 -0.23451,2.84029 2.6601,0.43986 -0.002,0.0138 -0.49686,3.48528 -3.47829,-0.58766 0.38464,-2.66864 -2.78632,-0.62902 z"
         style="font-size:9.87778px;fill:#e5ff07;fill-opacity:1;stroke:#e3fc00;stroke-width:0.264583;stroke-opacity:1"
         id="path1140" />
      <path
         d="m 150.4056,193.76322 2.03343,0.85813 -2.41087,-4.80233 -0.5222,2.15216 -2.03786,-0.86696 -0.56726,-1.12995 2.02453,0.81838 0.53553,-2.10359 0.90044,-0.45204 0.81101,1.61549 0.58055,1.15644 2.15383,4.29032 -0.90043,0.45204 -2.00245,-0.81842 -0.55762,2.10362 -0.56726,-1.12996 z"
         style="font-size:9.87778px;fill:#e5ff07;fill-opacity:1;stroke:#e3fc00;stroke-width:0.264583;stroke-opacity:1"
         id="path1142" />
      <path
         d="m 134.27739,203.16033 -2.31072,-7.55683 0.9635,-0.29462 1.8919,6.18716 0.92822,-2.13277 0.0139,-0.0559 0.003,0.009 0.007,-0.0123 0.0181,0.0255 1.97749,1.26492 -1.89191,-6.18716 0.9635,-0.29462 2.31072,7.55683 -0.9635,0.29462 -2.00216,-1.27803 -0.945,2.17921 z"
         style="font-size:9.87778px;fill:#e5ff07;fill-opacity:1;stroke:#e3fc00;stroke-width:0.264583;stroke-opacity:1"
         id="path1144" />
      <path
         d="m 121.19563,202.79346 -1.04401,0.46739 1.27924,1.30495 -0.15595,-1.17503 -0.003,-0.0196 z m -3.02732,-4.49073 2.76351,2.50298 -0.20793,-1.56671 -0.16635,-1.25337 0.82252,-0.10916 1.03966,7.83353 -0.82252,0.10917 -2.79729,-2.75757 0.587,-0.30709 0.15866,-0.0808 0.0281,-0.0137 1.411,-0.70542 -2.6337,-2.35081 z"
         style="font-size:9.87778px;fill:#e5ff07;fill-opacity:1;stroke:#e3fc00;stroke-width:0.264583;stroke-opacity:1"
         id="path1146" />
    </g>
  </g>
  <g
     inkscape:groupmode="layer"
     id="layer4"
     inkscape:label="Letter Lines"
     style="display:inline"
     sodipodi:insensitive="true"
     transform="translate(-5.648872,-5.6825731)">
    <g
       aria-label="hellomynameissaifafrontendwebdeveloper"
       id="text924"
       style="font-size:9.87778px;line-height:0;font-family:floki;-inkscape-font-specification:floki;letter-spacing:10.2791px;fill:none;stroke:#ffffff;stroke-width:0.465;stroke-miterlimit:4;stroke-dasharray:none;stroke-opacity:1">
      <path
         d="m 101.97181,206.71525 0.24403,-7.89845 1.00705,0.0311 -0.0558,1.80677 2.96845,3.71859 0.16777,-5.43019 1.00705,0.0311 -0.24403,7.89845 -1.00705,-0.0311 0.0372,-1.20452 -2.96936,-3.68897 -0.14825,4.79832 z"
         style="font-size:9.87778px;fill:none;stroke:#ffffff;stroke-width:0.465;stroke-miterlimit:4;stroke-dasharray:none;stroke-opacity:1"
         id="path995" />
      <path
         d="m 84.749221,204.28835 1.607346,-7.73703 0.986471,0.20494 -1.316015,6.33469 1.83935,-1.42375 0.03906,-0.0423 -0.002,0.01 0.01168,-0.008 0.0036,0.031 1.125716,2.05992 1.316014,-6.3347 0.986471,0.20494 -1.607346,7.73703 -0.986471,-0.20494 -1.14104,-2.08328 -1.8764,1.45642 z"
         style="font-size:9.87778px;fill:none;stroke:#ffffff;stroke-width:0.465;stroke-miterlimit:4;stroke-dasharray:none;stroke-opacity:1"
         id="path997" />
      <path
         d="m 73.701352,197.04072 1.506189,-3.88679 0.773674,0.29981 -2.855334,7.36833 -0.773674,-0.29981 -1.209058,-3.41353 0.465488,-1.22855 1.200424,3.46314 0.435438,-1.12367 z"
         style="font-size:9.87778px;fill:none;stroke:#ffffff;stroke-width:0.465;stroke-miterlimit:4;stroke-dasharray:none;stroke-opacity:1"
         id="path999" />
      <path
         d="m 60.384217,190.8409 2.085059,-3.60947 0.718473,0.41503 -3.95272,6.8426 -0.718472,-0.41504 -0.670657,-3.55867 0.648587,-1.14253 0.654505,3.60639 0.602789,-1.0435 z"
         style="font-size:9.87778px;fill:none;stroke:#ffffff;stroke-width:0.465;stroke-miterlimit:4;stroke-dasharray:none;stroke-opacity:1"
         id="path1001" />
      <path
         d="m 46.830917,181.59335 -1.72646,0.14355 0.187284,1.81336 1.822383,-0.16712 -0.192893,-1.72857 -0.0063,0.008 -0.0083,-0.0834 -0.02016,0.009 z m -0.02908,-3.75231 0.806088,-0.99963 0.08745,3.77459 3.71793,-0.65738 -0.82763,0.99475 -2.80877,0.48277 0.238897,2.68561 -0.0139,0.001 -3.49885,0.38993 -0.300267,-3.51478 2.680085,-0.29451 -0.08729,-2.8551 z"
         style="font-size:9.87778px;fill:none;stroke:#ffffff;stroke-width:0.465;stroke-miterlimit:4;stroke-dasharray:none;stroke-opacity:1"
         id="path1003" />
      <path
         d="m 33.880175,169.01726 -1.652297,1.42666 1.443157,-0.006 z m 2.006632,2.33911 -1.429225,0.007 -0.215596,1.41289 z m -5.401473,-0.73901 5.981164,-5.16438 0.658459,0.7626 -2.138267,1.84627 -0.384587,2.38098 2.383743,-0.0354 2.153219,-1.85917 0.658458,0.7626 -5.981164,5.16438 -0.658459,-0.7626 0.361138,-2.34768 -2.375246,0.015 z"
         style="font-size:9.87778px;fill:none;stroke:#ffffff;stroke-width:0.465;stroke-miterlimit:4;stroke-dasharray:none;stroke-opacity:1"
         id="path1005" />
      <path
         d="m 23.465625,153.07643 -1.204866,3.46838 5.723723,-3.36159 0.510241,0.86878 -0.0085,0.005 0.155074,0.26404 -0.653529,3.56842 -0.640303,-1.09024 0.406258,-2.31202 -0.170349,0.10005 -1.124302,0.66031 -4.778287,2.80633 -0.510241,-0.86878 1.167281,-3.43485 z"
         style="font-size:9.87778px;fill:none;stroke:#ffffff;stroke-width:0.465;stroke-miterlimit:4;stroke-dasharray:none;stroke-opacity:1"
         id="path1007" />
      <path
         d="m 18.770351,139.84866 2.519667,-0.93271 0.346335,0.93562 -1.695217,0.62751 -1.213516,0.44921 -0.704025,0.26061 -1.114991,2.02426 -1.185725,0.43891 1.105727,-2.02082 -2.603039,0.96356 -0.346335,-0.93561 3.677603,-1.36133 1.105727,-2.02083 1.228614,-0.46533 z"
         style="font-size:9.87778px;fill:none;stroke:#ffffff;stroke-width:0.465;stroke-miterlimit:4;stroke-dasharray:none;stroke-opacity:1"
         id="path1009" />
      <path
         d="m 12.334855,127.34248 2.234531,-2.84971 1.189853,-0.24595 -2.193852,2.85171 4.088851,-0.81058 0.161348,0.8139 -7.751377,1.53664 -0.1613484,-0.81389 2.2345304,-2.84971 1.286746,-0.26516 -2.281056,2.86901 z"
         style="font-size:9.87778px;fill:none;stroke:#ffffff;stroke-width:0.465;stroke-miterlimit:4;stroke-dasharray:none;stroke-opacity:1"
         id="path1011" />
      <path
         d="m 11.41719,109.24213 -2.1818324,0.0711 1.1264054,0.9022 z m 0.09047,3.08055 -1.116211,-0.89264 -1.055748,0.9634 z m -3.7366257,-3.96984 7.8980347,-0.25729 0.0328,1.007 -2.823547,0.092 -1.795672,1.61013 1.87627,1.47075 2.843293,-0.0926 0.0328,1.007 -7.8980341,0.25729 -0.032805,-1.007 1.7565036,-1.59897 -1.856847,-1.48126 z"
         style="font-size:9.87778px;fill:none;stroke:#ffffff;stroke-width:0.465;stroke-miterlimit:4;stroke-dasharray:none;stroke-opacity:1"
         id="path1013" />
      <path
         d="m 9.0810611,91.090926 7.8252509,1.100269 -0.140284,0.997719 -6.406924,-0.900845 1.540473,1.742765 0.04478,0.03622 -0.0098,-0.0014 0.0084,0.01116 -0.03072,0.0057 -1.9822652,1.257425 6.4069242,0.900845 -0.140284,0.99772 -7.8252512,-1.100269 0.1402843,-0.997719 2.0045789,-1.274238 -1.5754742,-1.77761 z"
         style="font-size:9.87778px;fill:none;stroke:#ffffff;stroke-width:0.465;stroke-miterlimit:4;stroke-dasharray:none;stroke-opacity:1"
         id="path1015" />
      <path
         d="m 16.364506,80.7468 -4.597181,-1.382644 0.290185,-0.96484 7.567375,2.275957 -0.290185,0.96484 -1.731037,-0.520625 z"
         style="font-size:9.87778px;fill:none;stroke:#ffffff;stroke-width:0.465;stroke-miterlimit:4;stroke-dasharray:none;stroke-opacity:1"
         id="path1017" />
      <path
         d="m 21.355519,65.61562 -0.0047,-0.01316 1.133305,0.537898 1.370807,3.285695 -0.504015,1.061916 -1.546083,-3.860912 -1.53298,1.087434 -1.09761,-0.520956 -0.07139,-0.03388 -1.366118,-3.272536 0.50825,-1.07084 1.582231,3.899936 1.519368,-1.104828 z"
         style="font-size:9.87778px;fill:none;stroke:#ffffff;stroke-width:0.465;stroke-miterlimit:4;stroke-dasharray:none;stroke-opacity:1"
         id="path1019" />
      <path
         d="m 29.687137,51.644917 -0.0024,-0.01376 1.025492,0.722553 0.792886,3.470768 -0.677037,0.960894 -0.867928,-4.067397 -1.69539,0.811293 -0.993192,-0.699794 -0.0646,-0.04552 -0.790502,-3.457004 0.682727,-0.968968 0.896923,4.111993 1.68493,-0.830747 z"
         style="font-size:9.87778px;fill:none;stroke:#ffffff;stroke-width:0.465;stroke-miterlimit:4;stroke-dasharray:none;stroke-opacity:1"
         id="path1021" />
      <path
         d="m 37.206917,40.202889 3.613752,0.234027 0.875098,0.842879 -3.592427,-0.199329 2.978664,2.916044 -0.580445,0.592909 -5.646756,-5.528045 0.580444,-0.59291 3.613752,0.234028 0.945683,0.911979 -3.655954,-0.261519 z"
         style="font-size:9.87778px;fill:none;stroke:#ffffff;stroke-width:0.465;stroke-miterlimit:4;stroke-dasharray:none;stroke-opacity:1"
         id="path1023" />
      <path
         d="m 48.991905,32.664926 -2.926516,-3.805427 0.79867,-0.614207 4.817311,6.264076 -0.79867,0.614208 -1.10196,-1.432908 z"
         style="font-size:9.87778px;fill:none;stroke:#ffffff;stroke-width:0.465;stroke-miterlimit:4;stroke-dasharray:none;stroke-opacity:1"
         id="path1025" />
      <path
         d="m 61.358595,18.984836 -1.368763,6.504497 1.381666,2.509319 -0.726837,0.400206 -3.811492,-6.922259 0.726837,-0.400207 0.748005,1.358494 0.356544,-1.932845 0.986422,-0.543138 -0.723598,3.60085 0.452614,0.822018 1.061403,-4.891912 z"
         style="font-size:9.87778px;fill:none;stroke:#ffffff;stroke-width:0.465;stroke-miterlimit:4;stroke-dasharray:none;stroke-opacity:1"
         id="path1027" />
      <path
         d="m 74.084587,16.10286 3.138164,1.807178 0.412434,1.142865 -3.134373,-1.766628 1.383048,3.932293 -0.782731,0.275299 -2.621892,-7.454584 0.782731,-0.275299 3.138164,1.807178 0.445208,1.236047 -3.163869,-1.850491 z"
         style="font-size:9.87778px;fill:none;stroke:#ffffff;stroke-width:0.465;stroke-miterlimit:4;stroke-dasharray:none;stroke-opacity:1"
         id="path1029" />
      <path
         d="m 92.321776,8.8871655 -3.405397,5.7083505 0.492627,2.821879 -0.817372,0.142692 -1.358971,-7.7844941 0.817372,-0.142692 0.266698,1.5277071 0.964456,-1.7125532 1.10929,-0.1936534 -1.852913,3.1711866 0.161377,0.924409 2.591387,-4.2827678 z"
         style="font-size:9.87778px;fill:none;stroke:#ffffff;stroke-width:0.465;stroke-miterlimit:4;stroke-dasharray:none;stroke-opacity:1"
         id="path1031" />
      <path
         d="m 105.33108,10.857028 1.09342,-0.335925 -1.10968,-1.4518794 0.0108,1.1852844 1.8e-4,0.01975 z m 2.45418,4.82787 -2.43595,-2.822764 0.0144,1.58038 0.0115,1.264303 -0.8297,0.0075 -0.0719,-7.9018969 0.8297,-0.00755 2.43828,3.0795749 -0.6202,0.232839 -0.16738,0.06079 -0.0295,0.01015 -1.48682,0.527188 2.32578,2.655836 z"
         style="font-size:9.87778px;fill:none;stroke:#ffffff;stroke-width:0.465;stroke-miterlimit:4;stroke-dasharray:none;stroke-opacity:1"
         id="path1033" />
      <path
         d="m 121.75691,12.607062 1.41334,-1.001866 -1.08372,-1.465909 -1.48393,1.07096 1.04542,1.390059 10e-4,-0.0098 0.0496,0.06759 0.0128,-0.01802 z m 1.9339,3.2157 -0.18545,1.270686 -1.99549,-3.205183 -2.86647,2.457333 0.20649,-1.277446 2.17257,-1.844503 -1.57189,-2.190604 0.0113,-0.0083 2.81391,-2.1156297 2.04654,2.8732437 -2.15755,1.616951 1.52759,2.41365 z"
         style="font-size:9.87778px;fill:none;stroke:#ffffff;stroke-width:0.465;stroke-miterlimit:4;stroke-dasharray:none;stroke-opacity:1"
         id="path1035" />
      <path
         d="m 137.28202,17.868985 -0.84753,2.549577 -0.94672,-0.314709 0.57021,-1.71534 0.40819,-1.227922 0.23681,-0.712382 -0.88262,-2.135838 0.39884,-1.199801 0.88574,2.126464 0.87557,-2.633938 0.94672,0.314709 -1.23702,3.721258 0.88573,2.126464 -0.40504,1.249785 z"
         style="font-size:9.87778px;fill:none;stroke:#ffffff;stroke-width:0.465;stroke-miterlimit:4;stroke-dasharray:none;stroke-opacity:1"
         id="path1037" />
      <path
         d="m 153.27884,21.06539 -2.86027,5.381714 -0.88969,-0.472849 0.49603,-0.933296 0.61193,-1.151356 1.73378,-3.262173 -2.69567,1.073017 0.62528,-1.155442 3.38212,-1.312237 0.80463,3.537411 -0.60784,1.164714 z"
         style="font-size:9.87778px;fill:none;stroke:#ffffff;stroke-width:0.465;stroke-miterlimit:4;stroke-dasharray:none;stroke-opacity:1"
         id="path1039" />
      <path
         d="m 170.13208,30.086951 -4.84951,6.239188 -0.79549,-0.618312 3.97053,-5.108335 -2.27832,0.468551 -0.0537,0.02081 0.006,-0.0078 -0.0139,0.0017 0.0104,-0.02946 -0.10385,-2.345146 -3.97053,5.108335 -0.79549,-0.618311 4.8495,-6.239188 0.7955,0.618311 0.10731,2.372868 2.32597,-0.481562 z"
         style="font-size:9.87778px;fill:none;stroke:#ffffff;stroke-width:0.465;stroke-miterlimit:4;stroke-dasharray:none;stroke-opacity:1"
         id="path1041" />
      <path
         d="m 176.92493,43.691019 -1.97873,1.817498 -0.67488,-0.734748 1.33128,-1.222802 0.95299,-0.875339 0.55288,-0.50783 0.26528,-2.295744 0.93117,-0.855293 -0.25801,2.289062 2.0442,-1.877636 0.67488,0.734748 -2.88807,2.652745 -0.25801,2.289062 -0.96086,0.895977 z"
         style="font-size:9.87778px;fill:none;stroke:#ffffff;stroke-width:0.465;stroke-miterlimit:4;stroke-dasharray:none;stroke-opacity:1"
         id="path1043" />
      <path
         d="m 190.50187,56.819345 -2.35381,-0.548389 -0.006,0.02728 -0.019,-0.01134 -0.50216,2.371174 z m -3.08027,-1.631534 0.003,-0.01364 0.022,-0.0023 0.50817,-2.398455 -2.92257,1.865299 z m 5.42208,1.132947 -1.19068,0.759936 -4.27978,2.731522 -1.19068,0.759937 1.0236,-4.473429 -4.48318,-0.947074 0.0333,-0.02126 -0.0493,-0.0037 6.66114,-4.251395 -0.0174,0.04624 0.0333,-0.02126 -1.02891,4.465103 z"
         style="font-size:9.87778px;fill:none;stroke:#ffffff;stroke-width:0.465;stroke-miterlimit:4;stroke-dasharray:none;stroke-opacity:1"
         id="path1045" />
      <path
         d="m 196.64977,69.996509 0.92586,-1.575481 -1.09361,0.457214 -0.0182,0.0076 -0.53768,0.224796 z m 0.16044,1.356863 -0.44965,-0.48651 -0.11945,-0.132066 -0.0205,-0.02353 -1.12378,-1.253887 -0.82932,0.34672 -1.64952,0.68963 -1.16651,0.487694 -0.32005,-0.765523 7.2907,-3.048089 0.32005,0.765523 z"
         style="font-size:9.87778px;fill:none;stroke:#ffffff;stroke-width:0.465;stroke-miterlimit:4;stroke-dasharray:none;stroke-opacity:1"
         id="path1047" />
      <path
         d="m 204.71732,86.68782 -7.6929,1.80677 -0.23036,-0.980845 6.29856,-1.479293 -2.06683,-1.067002 -0.0549,-0.01756 0.01,-0.0023 -0.0119,-0.0074 0.0266,-0.01639 1.39272,-1.889665 -6.29857,1.479293 -0.23036,-0.980845 7.6929,-1.80677 0.23037,0.980844 -1.40744,1.913415 2.11208,1.086817 z"
         style="font-size:9.87778px;fill:none;stroke:#ffffff;stroke-width:0.465;stroke-miterlimit:4;stroke-dasharray:none;stroke-opacity:1"
         id="path1049" />
      <path
         d="m 199.91314,99.951713 1.54138,0.996237 0.24255,-1.115014 z m 3.57771,-0.23821 0.39809,1.072357 1.38584,-1.191133 -1.18272,0.07875 -0.0197,0.0013 z m -1.39904,1.884987 -0.18535,0.63602 -3.25489,-2.1988 -0.0551,-0.8279 7.88477,-0.524981 0.0551,0.827901 -2.93465,2.61091 -0.26803,-0.60583 -0.0703,-0.16362 -0.0118,-0.0289 -0.65758,-1.55006 -0.44628,1.62356 0.01,-6.6e-4 -0.008,0.0302 -0.048,0.17148 z"
         style="font-size:9.87778px;fill:none;stroke:#ffffff;stroke-width:0.465;stroke-miterlimit:4;stroke-dasharray:none;stroke-opacity:1"
         id="path1051" />
      <path
         d="m 203.85407,119.51331 -1.50254,-1.89303 -0.0217,0.0176 -0.008,-0.0207 -1.86761,1.54488 z m -1.39803,-3.19304 0.0108,-0.009 0.0186,0.0119 1.88929,-1.56251 -3.44875,-0.35626 z m 3.54214,4.2586 -1.40504,-0.14514 -5.05031,-0.5217 -1.40504,-0.14515 3.58312,-2.86715 -2.92236,-3.52924 0.0393,0.004 -0.0363,-0.0335 7.8604,0.81199 -0.0423,0.0254 0.0393,0.004 -3.58211,2.85732 z"
         style="font-size:9.87778px;fill:none;stroke:#ffffff;stroke-width:0.465;stroke-miterlimit:4;stroke-dasharray:none;stroke-opacity:1"
         id="path1053" />
      <path
         d="m 202.19071,137.51642 -7.58349,-2.22164 0.28325,-0.96689 6.20899,1.81897 -1.27191,-1.94744 -0.0391,-0.0423 0.009,0.003 -0.007,-0.0123 0.0312,-0.001 2.14343,-0.95718 -6.20899,-1.81897 0.28326,-0.96689 7.5835,2.22164 -0.28326,0.96689 -2.16794,0.97058 1.3015,1.98699 z"
         style="font-size:9.87778px;fill:none;stroke:#ffffff;stroke-width:0.465;stroke-miterlimit:4;stroke-dasharray:none;stroke-opacity:1"
         id="path1055" />
      <path
         d="m 194.51161,149.37462 1.79329,-0.35135 -1.06732,-0.51561 -0.0178,-0.009 -0.52476,-0.25351 z m -0.90945,1.01967 0.0661,-0.65916 0.0197,-0.17699 0.004,-0.031 0.19369,-1.6726 -0.80939,-0.391 -1.60987,-0.7777 -1.13847,-0.54998 0.36092,-0.74713 7.11545,3.43737 -0.36092,0.74713 z"
         style="font-size:9.87778px;fill:none;stroke:#ffffff;stroke-width:0.465;stroke-miterlimit:4;stroke-dasharray:none;stroke-opacity:1"
         id="path1057" />
      <path
         d="m 187.39294,166.45189 -6.45857,-4.55325 0.58054,-0.82347 5.28795,3.72797 -0.5743,-2.25399 -0.0233,-0.0527 0.008,0.006 -0.002,-0.0138 0.0299,0.009 2.33775,-0.2131 -5.28795,-3.72797 0.58053,-0.82347 6.45857,4.55325 -0.58054,0.82347 -2.36528,0.21786 0.58952,2.30098 z"
         style="font-size:9.87778px;fill:none;stroke:#ffffff;stroke-width:0.465;stroke-miterlimit:4;stroke-dasharray:none;stroke-opacity:1"
         id="path1059" />
      <path
         d="m 176.36258,173.7054 -2.97241,-2.92242 0.58171,-0.59166 5.6349,5.54013 -0.58171,0.59167 -3.61325,-0.24178 -0.94372,-0.914 3.65538,0.26935 -0.85932,-0.84487 z"
         style="font-size:9.87778px;fill:none;stroke:#ffffff;stroke-width:0.465;stroke-miterlimit:4;stroke-dasharray:none;stroke-opacity:1"
         id="path1061" />
      <path
         d="m 164.02117,184.51444 -0.29248,1.70755 1.80263,0.27184 0.29362,-1.80632 -1.72193,-0.24522 0.006,0.008 -0.0828,-0.0128 0.004,0.0218 z m -3.64051,-0.90961 -0.76646,-1.03033 3.67667,0.85866 0.29265,-3.76424 0.75635,1.04997 -0.23451,2.84029 2.6601,0.43986 -0.002,0.0138 -0.49686,3.48528 -3.47829,-0.58766 0.38464,-2.66864 -2.78632,-0.62902 z"
         style="font-size:9.87778px;fill:none;stroke:#ffffff;stroke-width:0.465;stroke-miterlimit:4;stroke-dasharray:none;stroke-opacity:1"
         id="path1063" />
      <path
         d="m 150.4056,193.76322 2.03343,0.85813 -2.41087,-4.80233 -0.5222,2.15216 -2.03786,-0.86696 -0.56726,-1.12995 2.02453,0.81838 0.53553,-2.10359 0.90044,-0.45204 0.81101,1.61549 0.58055,1.15644 2.15383,4.29032 -0.90043,0.45204 -2.00245,-0.81842 -0.55762,2.10362 -0.56726,-1.12996 z"
         style="font-size:9.87778px;fill:none;stroke:#ffffff;stroke-width:0.465;stroke-miterlimit:4;stroke-dasharray:none;stroke-opacity:1"
         id="path1065" />
      <path
         d="m 134.27739,203.16033 -2.31072,-7.55683 0.9635,-0.29462 1.8919,6.18716 0.92822,-2.13277 0.0139,-0.0559 0.003,0.009 0.007,-0.0123 0.0181,0.0255 1.97749,1.26492 -1.89191,-6.18716 0.9635,-0.29462 2.31072,7.55683 -0.9635,0.29462 -2.00216,-1.27803 -0.945,2.17921 z"
         style="font-size:9.87778px;fill:none;stroke:#ffffff;stroke-width:0.465;stroke-miterlimit:4;stroke-dasharray:none;stroke-opacity:1"
         id="path1067" />
      <path
         d="m 121.19563,202.79346 -1.04401,0.46739 1.27924,1.30495 -0.15595,-1.17503 -0.003,-0.0196 z m -3.02732,-4.49073 2.76351,2.50298 -0.20793,-1.56671 -0.16635,-1.25337 0.82252,-0.10916 1.03966,7.83353 -0.82252,0.10917 -2.79729,-2.75757 0.587,-0.30709 0.15866,-0.0808 0.0281,-0.0137 1.411,-0.70542 -2.6337,-2.35081 z"
         style="font-size:9.87778px;fill:none;stroke:#ffffff;stroke-width:0.465;stroke-miterlimit:4;stroke-dasharray:none;stroke-opacity:1"
         id="path1069" />
    </g>
  </g>
</svg>
